<svg width="40" height="42" viewBox="0 0 40 42" fill="none" xmlns="http://www.w3.org/2000/svg">
<g filter="url(#filter0_d_23_75)">
<path d="M32.4412 19.9583C32.4412 17.4622 31.7532 15.2043 30.3771 13.1846C29.0007 11.1649 27.1873 9.67723 24.9371 8.72167C24.5626 8.56028 24.2966 8.3032 24.1391 7.95042C23.9816 7.59792 23.979 7.24153 24.1312 6.88125C24.286 6.4932 24.5569 6.22181 24.9441 6.06709C25.3314 5.91236 25.7261 5.91667 26.1283 6.08C28.91 7.26028 31.1411 9.10028 32.8216 11.6C34.5019 14.0997 35.3421 16.8854 35.3421 19.9571C35.3421 23.029 34.5019 25.8153 32.8216 28.3158C31.1411 30.8161 28.91 32.6564 26.1283 33.8367C25.7261 34 25.3314 34.0043 24.9441 33.8496C24.5569 33.6949 24.286 33.4239 24.1312 33.0367C23.979 32.6772 23.9816 32.32 24.1391 31.965C24.2966 31.61 24.5626 31.3511 24.9371 31.1883C27.1873 30.2372 29.0007 28.7518 30.3771 26.7321C31.7532 24.7124 32.4412 22.4544 32.4412 19.9583ZM11.4875 25.2792H6.2429C5.78929 25.2792 5.41165 25.1283 5.10998 24.8267C4.80859 24.5253 4.6579 24.15 4.6579 23.7008V16.2992C4.6579 15.8506 4.80859 15.4743 5.10998 15.1704C5.41165 14.8663 5.78929 14.7142 6.2429 14.7142H11.4875L17.5258 8.68584C18.0208 8.18639 18.5935 8.0707 19.2437 8.33875C19.894 8.60709 20.2191 9.09236 20.2191 9.79459V30.1988C20.2191 30.9063 19.894 31.3939 19.2437 31.6617C18.5935 31.9294 18.0208 31.8136 17.5258 31.3142L11.4875 25.2792ZM27.8421 20C27.8421 21.3608 27.5078 22.6086 26.8392 23.7433C26.1708 24.8783 25.2469 25.7685 24.0675 26.4138C23.8111 26.5521 23.5686 26.5451 23.34 26.3929C23.1114 26.2404 22.9971 26.0249 22.9971 25.7463V14.1983C22.9971 13.9194 23.1114 13.7056 23.34 13.5567C23.5686 13.4075 23.8111 13.4022 24.0675 13.5408C25.2469 14.1953 26.1708 15.0999 26.8392 16.2546C27.5078 17.4093 27.8421 18.6578 27.8421 20ZM17.0562 13.8258L12.8658 17.8775H7.82081V22.1225H12.8658L17.0562 26.2021V13.8258Z" fill="white"/>
</g>
<defs>
<filter id="filter0_d_23_75" x="-4" y="0" width="48" height="48" filterUnits="userSpaceOnUse" color-interpolation-filters="sRGB">
<feFlood flood-opacity="0" result="BackgroundImageFix"/>
<feColorMatrix in="SourceAlpha" type="matrix" values="0 0 0 0 0 0 0 0 0 0 0 0 0 0 0 0 0 0 127 0" result="hardAlpha"/>
<feOffset dy="4"/>
<feGaussianBlur stdDeviation="2"/>
<feComposite in2="hardAlpha" operator="out"/>
<feColorMatrix type="matrix" values="0 0 0 0 0 0 0 0 0 0 0 0 0 0 0 0 0 0 0.25 0"/>
<feBlend mode="normal" in2="BackgroundImageFix" result="effect1_dropShadow_23_75"/>
<feBlend mode="normal" in="SourceGraphic" in2="effect1_dropShadow_23_75" result="shape"/>
</filter>
</defs>
</svg>
